<?xml version="1.0" encoding="UTF-8"?>
<!DOCTYPE svg PUBLIC "-//W3C//DTD SVG 1.1//EN" "http://www.w3.org/Graphics/SVG/1.1/DTD/svg11.dtd">
<svg xmlns="http://www.w3.org/2000/svg" version="1.1" width="96px" height="96px" style="shape-rendering:geometricPrecision; text-rendering:geometricPrecision; image-rendering:optimizeQuality; fill-rule:evenodd; clip-rule:evenodd" xmlns:xlink="http://www.w3.org/1999/xlink">
<g><path style="opacity:0.874" fill="#fefffe" d="M 38.5,7.5 C 61.3294,4.54685 77.1628,13.5469 86,34.5C 91.7177,58.8973 83.2177,76.064 60.5,86C 36.1027,91.7177 18.936,83.2177 9,60.5C 3.42409,33.977 13.2574,16.3104 38.5,7.5 Z M 40.5,16.5 C 69.2742,16.1058 81.4408,30.1058 77,58.5C 76.2515,60.3325 75.2515,61.9991 74,63.5C 60.4393,55.064 45.9393,53.2307 30.5,58C 27.0879,59.4545 23.9212,61.2879 21,63.5C 13.3506,48.4451 15.5172,34.9451 27.5,23C 31.657,20.2548 35.9904,18.0881 40.5,16.5 Z M 44.5,31.5 C 51.1584,30.3445 53.1584,32.8445 50.5,39C 43.7496,40.4689 41.7496,37.9689 44.5,31.5 Z M 38.5,64.5 C 44.5092,64.3338 50.5092,64.5005 56.5,65C 61.0581,65.9457 65.0581,67.9457 68.5,71C 54.5,81 40.5,81 26.5,71C 30.1468,68.0127 34.1468,65.8461 38.5,64.5 Z"/></g>
<g><path style="opacity:0.884" fill="#fefffe" d="M 42.5,22.5 C 58.7289,21.9458 63.8956,29.2791 58,44.5C 51.8691,49.1956 45.3691,49.6956 38.5,46C 33.8044,39.8691 33.3044,33.3691 37,26.5C 38.8121,25.0229 40.6455,23.6896 42.5,22.5 Z M 44.5,31.5 C 41.7496,37.9689 43.7496,40.4689 50.5,39C 53.1584,32.8445 51.1584,30.3445 44.5,31.5 Z"/></g>
</svg>
